<?xml version="1.0" encoding="UTF-8"?> <svg xmlns="http://www.w3.org/2000/svg" width="153" height="41" viewBox="0 0 153 41" fill="none"><path d="M14.8791 11.6357C19.4483 11.6357 23.3602 8.35994 24.1626 3.86169V3.86169H13.7411H11.2618V3.86169C7.66903 3.86169 4.59885 6.45034 3.9918 9.9915L0 33.277H8.69852L10.4634 22.9816H18.7838L20.0444 15.8379H11.6863L12.409 11.6357H14.8791Z" fill="#F9F9F9"></path><path d="M34.6679 0.5L30.3213 25.8009C29.5793 30.1202 25.8338 33.277 21.4513 33.277H20.9688L25.1944 8.49482C25.9818 3.87723 29.9836 0.5 34.6679 0.5V0.5Z" fill="#F9F9F9"></path><path d="M49.2916 13.947L48.7327 17.2078C48.6277 16.9893 48.5142 16.7792 48.3881 16.5733C47.8124 15.6362 47.0645 14.8924 46.14 14.3462C45.2155 13.7999 44.0935 13.5267 42.7782 13.5267C41.1268 13.5267 39.5635 13.9596 38.0928 14.8294C36.622 15.6993 35.395 16.8885 34.4159 18.4013C33.4368 19.9141 32.819 21.6369 32.5669 23.57C32.3442 25.4189 32.5039 27.1082 33.0502 28.6336C33.5964 30.159 34.4495 31.3776 35.6135 32.2895C36.7775 33.2014 38.1852 33.6552 39.8367 33.6552C41.1268 33.6552 42.3244 33.3947 43.4296 32.8778C44.5347 32.3609 45.518 31.6381 46.3711 30.7137C46.3879 30.6927 46.4047 30.6716 46.4215 30.6548L45.9719 33.277H54.0821L57.4018 13.947H49.2916ZM47.1275 25.0197C46.8627 25.4819 46.5392 25.8938 46.161 26.2594C45.7828 26.6249 45.371 26.9023 44.9213 27.0998C44.4717 27.2973 44.0095 27.3813 43.5346 27.3519C42.9169 27.3225 42.4084 27.1292 42.0008 26.7636C41.5932 26.398 41.3159 25.9316 41.1604 25.3559C41.0049 24.7802 40.9713 24.2003 41.0553 23.612C41.1688 22.969 41.4251 22.3513 41.8327 21.763C42.2403 21.1747 42.7446 20.6999 43.3455 20.3343C43.9464 19.9687 44.5726 19.8006 45.2155 19.83C45.6651 19.8594 46.0475 19.9771 46.3711 20.1872C46.6947 20.3973 46.9678 20.6789 47.1905 21.0276C47.4132 21.3764 47.5603 21.7714 47.6317 22.2042C47.6948 22.6035 47.699 23.0195 47.657 23.4523L47.5813 23.8935C47.4847 24.2801 47.3334 24.6541 47.1275 25.0155V25.0197Z" fill="#F9F9F9"></path><path d="M95.2127 16.5103C94.9605 15.4177 94.4016 14.5647 93.5318 13.947C92.6619 13.3293 91.4013 13.0351 89.7498 13.0645C88.0689 13.0645 86.6738 13.4637 85.5686 14.2621C84.8585 14.7748 84.2576 15.4009 83.7491 16.1111L86.4301 0.5V0.5C81.7458 0.5 77.744 3.87723 76.9566 8.49483L72.731 33.277H80.7992L82.8288 21.4647C82.9423 20.9772 83.1272 20.5234 83.3835 20.1032C83.6482 19.6704 83.9844 19.3258 84.392 19.0736C84.7996 18.8215 85.2535 18.7249 85.7577 18.7795C86.262 18.8341 86.6108 18.998 86.8083 19.2627C87.0058 19.5275 87.1108 19.8595 87.1234 20.2503C87.1361 20.6411 87.115 21.0613 87.0604 21.5109L84.9593 33.277H93.0275L95.2547 20.2503C95.4774 18.8509 95.4648 17.6029 95.2127 16.5103Z" fill="#F9F9F9"></path><path d="M66.8356 33.2769H62.4565C62.8393 31.9146 63.0492 30.4782 63.0492 28.9924C63.0492 27.7166 62.8969 26.4819 62.6088 25.2966C62.2261 23.7161 61.1519 22.0945 59.8225 20.5841C57.5136 17.9747 59.3698 13.8632 62.8558 13.8632H67.2472C66.8645 15.2255 66.6587 16.6536 66.6587 18.1352C66.6587 19.4646 66.8274 20.7569 67.1361 21.9875C67.523 23.5145 68.556 25.0702 69.8442 26.523C72.1696 29.1406 70.3422 33.2769 66.8356 33.2769Z" fill="url(#paint0_linear_3003_3765)"></path><path d="M78.1379 13.8632V13.9537L67.1366 21.9917C66.8238 20.7569 66.6592 19.4687 66.6592 18.1394C66.6592 16.6577 66.865 15.2255 67.2477 13.8673H78.1379V13.8632Z" fill="#1844D2"></path><path d="M78.1379 13.8632V13.9537L67.1366 21.9917C66.8238 20.7569 66.6592 19.4687 66.6592 18.1394C66.6592 16.6577 66.865 15.2255 67.2477 13.8673H78.1379V13.8632Z" fill="url(#paint1_linear_3003_3765)"></path><path d="M78.1379 13.8632V13.9537L67.1366 21.9917C66.8238 20.7569 66.6592 19.4687 66.6592 18.1394C66.6592 16.6577 66.865 15.2255 67.2477 13.8673H78.1379V13.8632Z" fill="url(#paint2_linear_3003_3765)"></path><path d="M63.049 28.9926C63.049 30.4784 62.8432 31.9148 62.4563 33.2771H51.6855L62.6086 25.2968C62.8967 26.4821 63.049 27.7209 63.049 28.9926Z" fill="#1844D2"></path><path d="M63.049 28.9926C63.049 30.4784 62.8432 31.9148 62.4563 33.2771H51.6855L62.6086 25.2968C62.8967 26.4821 63.049 27.7209 63.049 28.9926Z" fill="url(#paint3_linear_3003_3765)"></path><path d="M63.049 28.9926C63.049 30.4784 62.8432 31.9148 62.4563 33.2771H51.6855L62.6086 25.2968C62.8967 26.4821 63.049 27.7209 63.049 28.9926Z" fill="url(#paint4_linear_3003_3765)"></path><path d="M152.051 16.4175L137.602 40.4647H134.379L140.541 30.3004L136.858 16.4175H139.975L142.949 29.1671L141.816 28.99L148.828 16.4175H152.051Z" fill="#E9EEFF"></path><path d="M132.011 16.4174H134.703L131.869 32.7086H129.284L132.011 16.4174ZM117.207 24.563C117.443 22.9574 117.998 21.5172 118.872 20.2423C119.769 18.9437 120.867 17.9166 122.166 17.1611C123.488 16.4056 124.916 16.0396 126.451 16.0632C127.537 16.0632 128.446 16.2993 129.178 16.7715C129.933 17.2437 130.524 17.8812 130.949 18.684C131.374 19.4867 131.645 20.3957 131.763 21.411C131.905 22.4026 131.905 23.4533 131.763 24.563C131.598 25.7199 131.291 26.8178 130.842 27.8566C130.394 28.8719 129.827 29.7691 129.142 30.5482C128.458 31.3273 127.655 31.9412 126.734 32.3898C125.837 32.8148 124.845 33.0273 123.759 33.0273C122.225 33.0273 120.926 32.6495 119.863 31.894C118.825 31.1148 118.069 30.0878 117.597 28.8128C117.125 27.5143 116.995 26.0976 117.207 24.563ZM120.041 24.563C119.899 25.6018 119.97 26.5698 120.253 27.467C120.536 28.3406 121.02 29.0489 121.705 29.592C122.413 30.1114 123.287 30.3711 124.326 30.3711C125.034 30.3711 125.719 30.2295 126.38 29.9461C127.065 29.6392 127.69 29.226 128.257 28.7066C128.824 28.1635 129.296 27.5379 129.674 26.8296C130.075 26.1212 130.347 25.3657 130.488 24.563C130.606 23.7838 130.594 23.0519 130.453 22.3672C130.311 21.6825 130.063 21.0686 129.709 20.5256C129.355 19.9825 128.906 19.5575 128.363 19.2506C127.844 18.9201 127.23 18.743 126.522 18.7194C125.483 18.6958 124.503 18.9437 123.582 19.4631C122.661 19.9589 121.882 20.6554 121.245 21.5526C120.631 22.4498 120.229 23.4533 120.041 24.563Z" fill="#E9EEFF"></path><path d="M98.978 40.4649L96.1094 40.5003L100.288 16.4176H103.015L98.978 40.4649ZM114.88 24.5632C114.667 26.1451 114.112 27.5854 113.215 28.8839C112.342 30.1825 111.244 31.2096 109.921 31.9651C108.623 32.697 107.206 33.063 105.672 33.063C104.586 33.063 103.665 32.8269 102.909 32.3547C102.177 31.8825 101.599 31.245 101.174 30.4422C100.749 29.6395 100.465 28.7305 100.324 27.7152C100.206 26.7 100.218 25.6493 100.359 24.5632C100.525 23.4063 100.831 22.3202 101.28 21.305C101.729 20.2661 102.295 19.3571 102.98 18.578C103.665 17.7988 104.456 17.185 105.353 16.7364C106.274 16.2878 107.277 16.0635 108.363 16.0635C109.898 16.0635 111.185 16.453 112.223 17.2322C113.286 18.0113 114.041 19.0502 114.49 20.3488C114.962 21.6237 115.092 23.0286 114.88 24.5632ZM112.082 24.5632C112.247 23.5008 112.176 22.5327 111.869 21.6591C111.586 20.762 111.09 20.0536 110.382 19.5342C109.697 18.9912 108.835 18.7197 107.797 18.7197C107.088 18.7197 106.392 18.8731 105.707 19.1801C105.046 19.4634 104.432 19.8766 103.865 20.4196C103.299 20.939 102.815 21.5529 102.413 22.2612C102.036 22.9695 101.776 23.7369 101.634 24.5632C101.54 25.3424 101.552 26.0743 101.67 26.759C101.811 27.4437 102.059 28.0576 102.413 28.6006C102.768 29.1437 103.204 29.5686 103.724 29.8756C104.267 30.1825 104.892 30.3478 105.601 30.3714C106.663 30.395 107.643 30.1589 108.54 29.6631C109.461 29.1437 110.24 28.4471 110.878 27.5736C111.515 26.6764 111.917 25.6729 112.082 24.5632Z" fill="#E9EEFF"></path><defs><linearGradient id="paint0_linear_3003_3765" x1="69.8865" y1="15.3565" x2="57.2898" y2="17.4857" gradientUnits="userSpaceOnUse"><stop stop-color="#1A50FF"></stop><stop offset="1" stop-color="#D96FF8"></stop></linearGradient><linearGradient id="paint1_linear_3003_3765" x1="83.8781" y1="11.1421" x2="59.5591" y2="22.6556" gradientUnits="userSpaceOnUse"><stop stop-color="#D96FF8"></stop><stop offset="0.8537" stop-color="#1EB8E9" stop-opacity="0"></stop></linearGradient><linearGradient id="paint2_linear_3003_3765" x1="64.7149" y1="18.9363" x2="70.8574" y2="15.5517" gradientUnits="userSpaceOnUse"><stop stop-opacity="0.53"></stop><stop offset="0.8537" stop-color="#1EB8E9" stop-opacity="0"></stop></linearGradient><linearGradient id="paint3_linear_3003_3765" x1="53.1751" y1="33.6371" x2="71.4903" y2="25.5814" gradientUnits="userSpaceOnUse"><stop stop-color="#D96FF8"></stop><stop offset="1" stop-color="#1A50FF" stop-opacity="0"></stop></linearGradient><linearGradient id="paint4_linear_3003_3765" x1="52.5291" y1="33.5231" x2="67.6145" y2="27.9373" gradientUnits="userSpaceOnUse"><stop stop-color="#1A50FF" stop-opacity="0"></stop><stop offset="1" stop-opacity="0.55"></stop></linearGradient></defs></svg> 